<?xml version="1.0" encoding="iso-8859-1"?>
<!-- Uploaded to: SVG Repo, www.svgrepo.com, Generator: SVG Repo Mixer Tools -->
<svg fill="#000000" height="800px" width="800px" version="1.1" id="Layer_1" xmlns="http://www.w3.org/2000/svg" xmlns:xlink="http://www.w3.org/1999/xlink" 
	 viewBox="0 0 491.6 491.6" xml:space="preserve">
<g>
	<path d="M394.65,224.2c1.2-8.7,1.8-17.6,1.8-26.6c0-109-88.7-197.6-197.6-197.6C89.85,0,1.25,88.7,1.25,197.6
		c0,109,88.7,197.6,197.6,197.6c7.9,0,15.7-0.5,23.4-1.4c16.9,56.5,69.3,97.8,131.2,97.8c75.5,0,136.9-61.4,136.9-136.9
		C490.35,293.6,450.05,241.7,394.65,224.2z M257.55,354.7c0-52.9,43-95.9,95.9-95.9c19,0,36.8,5.6,51.7,15.2l-132.5,132.4
		C263.05,391.5,257.55,373.8,257.55,354.7z M42.15,197.6c0-86.4,70.3-156.6,156.6-156.6c35.8,0,68.8,12.1,95.3,32.4L74.55,292.8
		C54.25,266.4,42.15,233.4,42.15,197.6z M103.55,321.8l219.5-219.5c20.3,26.4,32.4,59.4,32.4,95.3c0,6.9-0.5,13.6-1.3,20.2
		c-0.2,0-0.5,0-0.7,0c-75,0-136.1,60.6-136.9,135.4c-5.8,0.7-11.7,1-17.7,1C163.05,354.2,129.95,342.1,103.55,321.8z M353.45,450.6
		c-19,0-36.8-5.6-51.7-15.2L434.15,303c9.6,14.9,15.2,32.7,15.2,51.7C449.35,407.6,406.25,450.6,353.45,450.6z"/>
</g>
</svg>